<svg width="26" height="36" viewBox="0 0 26 36" fill="none" xmlns="http://www.w3.org/2000/svg">
<path d="M21.6555 11.0109C21.6906 10.9547 21.7258 10.8914 21.7609 10.8352C22.4078 9.73125 22.8578 8.69063 23.1109 7.72734C24.2711 7.24219 25.0867 6.09609 25.0867 4.76016V3.21328C25.0867 1.44141 23.6453 0 21.8734 0H4.12656C2.35469 0 0.913281 1.44141 0.913281 3.21328V4.75312C0.913281 6.08906 1.72891 7.23516 2.88906 7.72031C3.14219 8.68359 3.59219 9.72422 4.23906 10.8281C4.27422 10.8844 4.30937 10.9477 4.34453 11.0039C5.96172 13.6969 8.42266 16.3336 10.1102 17.993C9.30859 18.7805 8.31719 19.807 7.31172 20.9742C4.91406 23.7516 3.43047 26.2055 2.88203 28.2727C1.72187 28.7578 0.90625 29.9039 0.90625 31.2398V32.7797C0.90625 34.5516 2.34766 35.993 4.11953 35.993H21.8734C23.6453 35.993 25.0867 34.5516 25.0867 32.7797V31.2398C25.0867 29.9039 24.2711 28.7578 23.1109 28.2727C22.5695 26.1984 21.0789 23.7516 18.6812 20.9742C17.6828 19.8141 16.6844 18.7875 15.8828 17.993C17.5773 16.3406 20.0383 13.7039 21.6555 11.0109ZM20.3195 9.37969H5.68047C5.41328 8.8875 5.19531 8.41641 5.03359 7.96641H20.9734C20.8047 8.41641 20.5867 8.8875 20.3195 9.37969ZM8.00781 12.7828C7.62812 12.3188 7.2625 11.8336 6.91797 11.3484H19.075C18.7305 11.8336 18.3648 12.3188 17.9852 12.7828C16.368 14.6953 13.9984 16.2492 12.993 16.8609C11.9945 16.2422 9.63203 14.6883 8.00781 12.7828ZM2.88203 3.21328C2.88203 2.52422 3.4375 1.96875 4.12656 1.96875H21.8805C22.5695 1.96875 23.125 2.52422 23.125 3.21328V4.75312C23.125 5.44219 22.5695 5.99766 21.8805 5.99766H4.12656C3.4375 5.99766 2.88203 5.44219 2.88203 4.75312V3.21328V3.21328ZM23.118 32.7867C23.118 33.4758 22.5625 34.0312 21.8734 34.0312H4.12656C3.4375 34.0312 2.88203 33.4758 2.88203 32.7867V31.2469C2.88203 30.5578 3.4375 30.0023 4.12656 30.0023H21.8805C22.5695 30.0023 23.125 30.5578 23.125 31.2469V32.7867H23.118ZM5.99687 28.0336C6.68594 27.457 7.62109 26.8242 8.80937 26.1352C10.9117 24.9117 12.9719 24.0047 13 23.9977H13.007C13.0914 24.0328 15.1375 24.9469 17.1906 26.1352C18.3789 26.8242 19.3211 27.457 20.0031 28.0336H5.99687ZM17.1906 22.268C18.0906 23.3156 18.85 24.3 19.4688 25.2211C19.075 24.968 18.6461 24.7078 18.175 24.4336C16.0656 23.2102 14.0266 22.2961 13.8016 22.1977C13.2953 21.9727 12.7047 21.9727 12.1984 22.1977C12.1773 22.2047 10.0188 23.1609 7.81797 24.4336C7.35391 24.7008 6.925 24.968 6.52422 25.2211C7.13594 24.3 7.89531 23.3156 8.80234 22.268C10.0891 20.7703 11.3617 19.5117 12.2055 18.7172C12.2125 18.7102 12.2195 18.7031 12.2266 18.6961C12.3953 18.7945 12.5008 18.8508 12.5219 18.8648C12.6695 18.9492 12.8312 18.9914 13 18.9914C13.1617 18.9914 13.3305 18.9492 13.4781 18.8648C13.4992 18.8508 13.6047 18.7945 13.7734 18.6961C13.7805 18.7031 13.7875 18.7102 13.7945 18.7172C14.6383 19.5117 15.9109 20.7773 17.1906 22.268Z" fill="#5BA16C"/>
</svg>
