<svg width="33" height="36" viewBox="0 0 33 36" fill="none" xmlns="http://www.w3.org/2000/svg">
<path d="M32.7286 32.6461C32.6864 32.0766 32.4333 31.2469 31.456 30.5086L27.4481 27.3305L27.856 26.9227C28.0247 26.9648 28.1935 26.993 28.3763 26.993C28.988 26.993 29.5997 26.7258 30.0638 26.2617L30.0708 26.2547C30.9497 25.3687 31.0271 24.0047 30.2466 23.2242L27.2372 20.2078V11.4398C27.2372 10.7297 26.963 10.0547 26.4567 9.55547C24.4177 7.51641 22.3856 5.47734 20.3466 3.43828L17.7028 0.7875C17.2106 0.28125 16.5356 0 15.8185 0H4.68799C2.63486 0 0.961426 1.67344 0.961426 3.72656V28.9266C0.961426 30.9797 2.63486 32.6531 4.68799 32.6531H19.1513L19.995 33.4969C20.3606 33.8555 20.8388 34.0383 21.345 34.0383C21.9356 34.0383 22.5544 33.7922 23.0325 33.3141C23.2294 33.1172 23.3911 32.8992 23.5106 32.6602H23.5247C24.1435 32.6602 24.7411 32.5125 25.2755 32.2242L27.2513 34.7273C27.9896 35.7047 28.8192 35.9578 29.3888 36C29.4521 36.007 29.5083 36.007 29.5716 36.007C30.338 36.007 31.1044 35.6555 31.7513 35.0086C32.4333 34.3055 32.7849 33.4687 32.7286 32.6461ZM18.7505 25.8047L22.5825 21.9797L26.295 25.7063L25.5778 26.4234C25.5708 26.4305 25.5708 26.4305 25.5638 26.4375L25.2755 26.7258L25.2685 26.7328L22.47 29.5242L18.7505 25.8047ZM28.6716 24.8695C28.6716 24.8766 28.6646 24.8766 28.6716 24.8695C28.5521 24.982 28.4396 25.0172 28.3903 25.0242L28.3833 25.0172L23.2927 19.9055L23.2856 19.8984C23.2856 19.8984 23.2786 19.8984 23.2786 19.8914L23.2575 19.8703C23.2575 19.8141 23.2927 19.6945 23.4122 19.575C23.4122 19.575 23.4122 19.575 23.4192 19.568C23.5317 19.4555 23.6442 19.4203 23.7005 19.4203L25.5708 21.2977L25.5778 21.3047L28.8333 24.5742C28.8192 24.6305 28.7911 24.75 28.6716 24.8695ZM18.9614 4.82344C20.5997 6.46875 22.245 8.11406 23.8833 9.75938H18.5677C17.9841 9.75938 17.506 9.28125 17.506 8.69062V3.36094L18.9614 4.82344ZM4.68799 30.6773C3.71768 30.6773 2.93018 29.8898 2.93018 28.9195V3.72656C2.93018 2.75625 3.71768 1.96875 4.68799 1.96875H15.5372V8.69062C15.5372 10.3641 16.8942 11.7281 18.5677 11.7281H25.2755V18.232L25.0505 18.007C24.6989 17.6555 24.2208 17.4586 23.7005 17.4586C23.0888 17.4586 22.4771 17.7258 22.013 18.1898L22.006 18.1969C21.3872 18.8297 21.1622 19.6875 21.3661 20.4187L17.1896 24.5883C16.4583 24.3914 15.5935 24.6164 14.9677 25.2422C14.5036 25.7062 14.2364 26.318 14.2364 26.9297C14.2364 27.45 14.4333 27.9352 14.7849 28.2797L17.1825 30.6773H4.68799V30.6773ZM21.6403 31.9078C21.5208 32.0273 21.4013 32.0555 21.3521 32.0625L20.2552 30.9727L20.2481 30.9656L16.1981 26.9227C16.1981 26.8664 16.2333 26.7539 16.3528 26.6344C16.4724 26.5148 16.5919 26.4867 16.6411 26.4797L16.6552 26.4937C16.6552 26.4937 16.6552 26.5008 16.6622 26.5008C16.6622 26.5008 16.6692 26.5008 16.6692 26.5078L21.7739 31.6055L21.788 31.6195C21.788 31.6758 21.7528 31.7953 21.6403 31.9078ZM30.345 33.6164C30.0567 33.9047 29.7685 34.0523 29.5153 34.0312C29.22 34.0102 28.9669 33.75 28.8052 33.532C28.7981 33.525 28.7981 33.518 28.7911 33.5109L25.4724 29.2992L26.0419 28.7297L30.2396 32.0555C30.2466 32.0625 30.2536 32.0695 30.2606 32.0695C30.4786 32.2313 30.7388 32.4844 30.7599 32.7797C30.781 33.0328 30.6333 33.3281 30.345 33.6164ZM4.37861 10.7438C4.37861 10.2023 4.82158 9.75938 5.36299 9.75938H13.1677C13.7091 9.75938 14.1521 10.2023 14.1521 10.7438C14.1521 11.2852 13.7091 11.7281 13.1677 11.7281H5.36299C4.82158 11.7281 4.37861 11.2852 4.37861 10.7438ZM4.24502 14.85C4.24502 14.3086 4.68799 13.8656 5.22939 13.8656H21.5981C22.1396 13.8656 22.5825 14.3086 22.5825 14.85C22.5825 15.3914 22.1396 15.8344 21.5981 15.8344H5.22939C4.68799 15.8344 4.24502 15.3984 4.24502 14.85ZM4.24502 18.9633C4.24502 18.4219 4.68799 17.9789 5.22939 17.9789H18.1739C18.7153 17.9789 19.1583 18.4219 19.1583 18.9633C19.1583 19.5047 18.7153 19.9477 18.1739 19.9477H5.22939C4.68799 19.9477 4.24502 19.5047 4.24502 18.9633ZM14.8622 24.0539H5.36299C4.82158 24.0539 4.37861 23.6109 4.37861 23.0695C4.37861 22.5281 4.82158 22.0852 5.36299 22.0852H14.8622C15.4036 22.0852 15.8466 22.5281 15.8466 23.0695C15.8466 23.6109 15.4106 24.0539 14.8622 24.0539Z" fill="#5BA16C"/>
</svg>
