<svg width="20" height="20" viewBox="0 0 20 20" fill="none" xmlns="http://www.w3.org/2000/svg">
<path d="M11.1726 10.0056L19.7458 1.43239C20.0767 1.11282 20.0858 0.585551 19.7663 0.254662C19.4467 -0.0762262 18.9194 -0.0854012 18.5885 0.234165C18.5816 0.240851 18.5748 0.247683 18.568 0.254662L9.9948 8.82784L1.42161 0.254613C1.09072 -0.0649525 0.56345 -0.0557774 0.243884 0.275111C-0.0678737 0.597898 -0.0678737 1.1096 0.243884 1.43239L8.81707 10.0056L0.243884 18.5788C-0.0812947 18.904 -0.0812947 19.4313 0.243884 19.7565C0.569112 20.0816 1.09639 20.0816 1.42161 19.7565L9.9948 11.1833L18.568 19.7565C18.8989 20.076 19.4262 20.0669 19.7457 19.736C20.0574 19.4132 20.0574 18.9015 19.7457 18.5788L11.1726 10.0056Z" fill="#D7D7D7"/>
</svg>
