<svg width="28" height="28" viewBox="0 0 28 28" fill="none" xmlns="http://www.w3.org/2000/svg">
<path d="M0 14C0 6.26801 6.26801 0 14 0C21.732 0 28 6.26801 28 14C28 21.732 21.732 28 14 28C6.26801 28 0 21.732 0 14Z" fill="#80B050"/>
<path d="M9.05022 10.4645C8.65969 10.0739 8.65969 9.44078 9.05022 9.05026C9.44074 8.65973 10.0739 8.65973 10.4644 9.05026L18.9497 17.5355C19.3402 17.9261 19.3402 18.5592 18.9497 18.9497C18.5592 19.3403 17.926 19.3403 17.5355 18.9497L9.05022 10.4645Z" fill="white"/>
<path d="M17.5355 9.05026C17.926 8.65973 18.5592 8.65973 18.9497 9.05026C19.3402 9.44078 19.3402 10.0739 18.9497 10.4645L10.4644 18.9497C10.0739 19.3403 9.44074 19.3403 9.05022 18.9497C8.65969 18.5592 8.65969 17.9261 9.05022 17.5355L17.5355 9.05026Z" fill="white"/>
</svg>
