<svg width="20" height="20" viewBox="0 0 20 20" fill="none" xmlns="http://www.w3.org/2000/svg">
<path d="M19 4.10002H15.8C15.9 3.70002 16 3.40002 16 3.00002C16 1.30002 14.7 -0.0999756 13 -0.0999756C11.3 -0.0999756 10 1.30002 10 3.00002C10 1.30002 8.7 -0.0999756 7 -0.0999756C5.3 -0.0999756 4 1.30002 4 3.00002C4 3.40002 4.1 3.70002 4.2 4.10002H1C0.5 4.10002 0 4.60002 0 5.10002V6.10002C0 6.60002 0.5 7.10002 1 7.10002H19C19.5 7.10002 20 6.60002 20 6.10002V5.10002C20 4.50002 19.5 4.10002 19 4.10002ZM12 3.00002C12 2.40002 12.5 2.00002 13 2.00002C13.5 2.00002 14 2.50002 14 3.00002C14 3.60002 13.5 4.00002 13 4.00002H12V3.00002ZM7 2.00002C7.5 2.00002 8 2.50002 8 3.00002V4.00002H7C6.5 4.00002 6 3.60002 6 3.00002C6 2.40002 6.5 2.00002 7 2.00002Z" fill="url(#paint0_linear_1062_453)"/>
<path d="M2 19.1C2 19.6 2.5 20.1 3 20.1H17C17.5 20.1 18 19.6 18 19.1V9H2V19.1Z" fill="url(#paint1_linear_1062_453)"/>
<defs>
<linearGradient id="paint0_linear_1062_453" x1="0" y1="-0.0999756" x2="24.1936" y2="9.25708" gradientUnits="userSpaceOnUse">
<stop stop-color="#5BA1C1"/>
<stop offset="0.484375" stop-color="#5BA16C"/>
<stop offset="1" stop-color="#80B050"/>
</linearGradient>
<linearGradient id="paint1_linear_1062_453" x1="0" y1="-0.0999756" x2="24.1936" y2="9.25708" gradientUnits="userSpaceOnUse">
<stop stop-color="#5BA1C1"/>
<stop offset="0.484375" stop-color="#5BA16C"/>
<stop offset="1" stop-color="#80B050"/>
</linearGradient>
</defs>
</svg>
