<svg width="20" height="20" viewBox="0 0 20 20" fill="none" xmlns="http://www.w3.org/2000/svg">
<path d="M14.375 10H11.875C11.5298 10 11.25 10.2798 11.25 10.625V15.625C11.25 15.9702 11.5298 16.25 11.875 16.25H14.375C15.0654 16.25 15.625 15.6904 15.625 15V11.25C15.625 10.5596 15.0654 10 14.375 10ZM14.375 15H12.5V11.25H14.375V15Z" fill="#569884"/>
<path d="M20 11.25V10H16.875C16.5298 10 16.25 10.2798 16.25 10.625V16.25H17.5V13.75H20V12.5H17.5V11.25H20Z" fill="#569884"/>
<path d="M1.25 18.1247V1.87475C1.25 1.52955 1.5298 1.24975 1.875 1.24975H11.25V3.74975C11.25 4.4401 11.8096 4.99975 12.5 4.99975H15V6.87475H16.25V4.37475C16.251 4.20862 16.1857 4.04893 16.0687 3.931L12.3187 0.181001C12.2008 0.0640084 12.0411 -0.00118693 11.875 -0.000249427H1.875C0.839453 -0.000249427 0 0.839243 0 1.87475V18.1247C0 19.1603 0.839453 19.9997 1.875 19.9997H6.25V18.7497H1.875C1.52984 18.7497 1.25 18.4699 1.25 18.1247Z" fill="#569884"/>
<path d="M9.375 10H6.875C6.5298 10 6.25 10.2798 6.25 10.625V16.25H7.5V14.375H9.375C10.0654 14.375 10.625 13.8154 10.625 13.125V11.25C10.625 10.5596 10.0654 10 9.375 10ZM9.375 13.125H7.5V11.25H9.375V13.125Z" fill="#569884"/>
</svg>
