<svg width="24" height="25" viewBox="0 0 24 25" fill="none" xmlns="http://www.w3.org/2000/svg">
<path d="M16.8609 0.35083H7.13906C3.17813 0.35083 0 3.52896 0 7.48989V17.2118C0 21.1727 3.17813 24.3508 7.13906 24.3508H16.8609C20.8219 24.3508 24 21.1727 24 17.2118V7.48989C24 3.58989 20.8219 0.35083 16.8609 0.35083ZM21.6 17.2118C21.6 19.8508 19.5 21.9508 16.8609 21.9508H7.13906C4.5 21.9508 2.4 19.8508 2.4 17.2118V7.48989C2.4 4.85083 4.5 2.75083 7.13906 2.75083H16.8609C19.5 2.75083 21.6 4.85083 21.6 7.48989V17.2118ZM12 6.1727C8.57812 6.1727 5.82187 8.93364 5.82187 12.3508C5.82187 15.768 8.57812 18.529 12 18.529C15.4219 18.529 18.1781 15.768 18.1781 12.3508C18.1781 8.93364 15.4219 6.1727 12 6.1727ZM12 16.1899C9.9 16.1899 8.22187 14.5118 8.22187 12.4118C8.22187 10.3118 9.9 8.63364 12 8.63364C14.1 8.63364 15.7781 10.3118 15.7781 12.4118C15.7781 14.4508 14.1 16.1899 12 16.1899ZM18.2391 4.72896C19.0688 4.72896 19.7391 5.39927 19.7391 6.22896C19.7391 7.05864 19.0688 7.72895 18.2391 7.72895C17.4094 7.72895 16.7391 7.05864 16.7391 6.22896C16.7391 5.39927 17.4094 4.72896 18.2391 4.72896Z" fill="white" fill-opacity="0.64"/>
</svg>
