<svg width="36" height="36" viewBox="0 0 36 36" fill="none" xmlns="http://www.w3.org/2000/svg">
<path d="M34.2 7.38004H28.44C28.62 6.66004 28.8 6.12004 28.8 5.40004C28.8 2.34004 26.46 -0.179962 23.4 -0.179962C20.34 -0.179962 18 2.34004 18 5.40004C18 2.34004 15.66 -0.179962 12.6 -0.179962C9.54 -0.179962 7.2 2.34004 7.2 5.40004C7.2 6.12004 7.38 6.66004 7.56 7.38004H1.8C0.9 7.38004 0 8.28004 0 9.18004V10.98C0 11.88 0.9 12.78 1.8 12.78H34.2C35.1 12.78 36 11.88 36 10.98V9.18004C36 8.10004 35.1 7.38004 34.2 7.38004ZM21.6 5.40004C21.6 4.32004 22.5 3.60004 23.4 3.60004C24.3 3.60004 25.2 4.50004 25.2 5.40004C25.2 6.48004 24.3 7.20004 23.4 7.20004H21.6V5.40004ZM12.6 3.60004C13.5 3.60004 14.4 4.50004 14.4 5.40004V7.20004H12.6C11.7 7.20004 10.8 6.48004 10.8 5.40004C10.8 4.32004 11.7 3.60004 12.6 3.60004Z" fill="white"/>
<path d="M3.6 34.38C3.6 35.28 4.5 36.18 5.4 36.18H30.6C31.5 36.18 32.4 35.28 32.4 34.38V16.2H3.6V34.38Z" fill="white"/>
</svg>
