<svg width="28" height="28" viewBox="0 0 28 28" fill="none" xmlns="http://www.w3.org/2000/svg">
<path d="M0 14C0 6.26801 6.26801 0 14 0C21.732 0 28 6.26801 28 14C28 21.732 21.732 28 14 28C6.26801 28 0 21.732 0 14Z" fill="#80B050"/>
<path d="M8 15C7.44772 15 7 14.5523 7 14C7 13.4477 7.44772 13 8 13L20 13C20.5523 13 21 13.4477 21 14C21 14.5523 20.5523 15 20 15L8 15Z" fill="white"/>
<path d="M13 8C13 7.44772 13.4477 7 14 7C14.5523 7 15 7.44772 15 8V20C15 20.5523 14.5523 21 14 21C13.4477 21 13 20.5523 13 20V8Z" fill="white"/>
</svg>
