<svg width="24" height="15" viewBox="0 0 24 15" fill="none" xmlns="http://www.w3.org/2000/svg">
<path d="M23.3156 14.1571H19.8187C18.9 14.2227 18.1875 13.8852 17.5781 13.2383C17.1046 12.7274 16.6593 12.2211 16.1859 11.7102C15.9843 11.5086 15.7781 11.3024 15.539 11.1665C15.0656 10.8618 14.6578 10.9649 14.3859 11.4383C14.114 11.9493 14.0484 12.493 14.0109 13.0696C13.9781 13.8852 13.739 14.1243 12.8906 14.1571C11.1234 14.2227 9.45933 13.9883 7.89839 13.0696C6.53902 12.2868 5.45152 11.1665 4.53745 9.91021C2.73276 7.46333 1.34058 4.78208 0.11714 1.99771C-0.154735 1.38833 0.0515147 1.04614 0.726515 1.01333C1.87964 0.980518 2.99995 0.980518 4.15776 1.01333C4.6312 1.01333 4.94058 1.28521 5.10933 1.72583C5.7187 3.25395 6.4687 4.67896 7.42027 6.03833C7.65933 6.37583 7.9312 6.75083 8.30152 6.98989C8.70933 7.26177 9.01402 7.15864 9.22027 6.71802C9.3562 6.44614 9.38902 6.10864 9.42183 5.79927C9.52495 4.74458 9.52495 3.69458 9.3562 2.63989C9.25308 1.99302 8.88277 1.55239 8.23589 1.44927C7.89839 1.38364 7.96402 1.2477 8.09995 1.07427C8.37183 0.736768 8.6437 0.530518 9.18745 0.530518H13.125C13.7343 0.666455 13.8703 0.93833 13.9734 1.5477V5.93052C13.9734 6.16958 14.1093 6.88208 14.5171 7.05083C14.8546 7.15396 15.0937 6.88208 15.3 6.67583C16.2515 5.65864 16.9312 4.46802 17.5406 3.24458C17.8125 2.70083 18.0515 2.15708 18.2531 1.58052C18.4218 1.1727 18.6937 0.971143 19.1343 0.971143H22.9406C23.0437 0.971143 23.1796 0.971143 23.2781 1.00396C23.925 1.10708 24.0937 1.37896 23.8875 2.02114C23.5828 3.00552 22.9687 3.82114 22.3593 4.63677C21.7125 5.51802 21.0328 6.37114 20.4234 7.25239C19.9125 8.06802 19.95 8.47583 20.6625 9.18833C21.4453 9.97114 22.2937 10.6836 23.0062 11.5649C23.3109 11.9399 23.6156 12.3477 23.8546 12.7883C24.1968 13.4071 23.8921 14.1196 23.3156 14.1571Z" fill="white" fill-opacity="0.64"/>
</svg>
