<svg width="24" height="20" viewBox="0 0 24 20" fill="none" xmlns="http://www.w3.org/2000/svg">
<path d="M23.7797 4.8063C23.7797 4.8063 23.5219 3.02037 22.8328 2.23756C21.9188 1.20162 20.8781 1.20162 20.4281 1.15474C17.0625 0.91568 12.0187 0.868805 12.0187 0.868805C12.0187 0.868805 10.7578 0.882867 9.075 0.929742C7.39219 0.957867 5.29219 1.03287 3.60938 1.15474C3.15937 1.20162 2.12344 1.2438 1.20469 2.23756C0.473438 3.01568 0.2625 4.8063 0.2625 4.8063C0.2625 4.8063 0.0234375 6.92506 0.0234375 9.02505V10.9797C0.0234375 13.0844 0.2625 15.1563 0.2625 15.1563C0.2625 15.1563 0.515625 16.9376 1.20937 17.7204C2.12344 18.7563 3.32812 18.7094 3.86719 18.8454C5.775 19.0422 12.0234 19.0844 12.0234 19.0844C12.0234 19.0844 17.0719 19.0844 20.4328 18.7985C20.8828 18.7516 21.9188 18.7094 22.8375 17.7157C23.5266 16.9329 23.7844 15.1469 23.7844 15.1469C23.7844 15.1469 24.0234 13.0422 24.0234 10.9704V9.01568C24.0234 6.92037 23.7797 4.8063 23.7797 4.8063ZM9.12188 14.7766V5.79537L16.9922 10.3891L9.12188 14.7766Z" fill="white" fill-opacity="0.64"/>
</svg>
